<?xml version="1.0" encoding="UTF-8"?>
<svg version="1.1" xmlns="http://www.w3.org/2000/svg" width="48" height="48">
<path d="M0 0 C5.29526682 3.63425152 8.66922216 7.67012626 10 14 C10.95352712 21.76443511 9.32839011 27.50145287 5 34 C0.23207106 38.89340076 -5.26300167 41.15009262 -12 41.375 C-18.48989825 41.14883688 -23.77216501 38.94239202 -28.64453125 34.56640625 C-33.20444731 29.29687789 -34.6379406 23.19115428 -34.3203125 16.3515625 C-33.4505466 9.96620798 -30.31679503 5.5223567 -26 1 C-18.15473162 -4.54909227 -8.33347424 -4.64751448 0 0 Z " fill="#E76C1F" transform="translate(36,5)"/>
<path d="M0 0 C5.29526682 3.63425152 8.66922216 7.67012626 10 14 C10.95352712 21.76443511 9.32839011 27.50145287 5 34 C0.23207106 38.89340076 -5.26300167 41.15009262 -12 41.375 C-18.48989825 41.14883688 -23.77216501 38.94239202 -28.64453125 34.56640625 C-33.20444731 29.29687789 -34.6379406 23.19115428 -34.3203125 16.3515625 C-33.4505466 9.96620798 -30.31679503 5.5223567 -26 1 C-18.15473162 -4.54909227 -8.33347424 -4.64751448 0 0 Z M-28.68359375 9.30859375 C-31.31800537 14.69467566 -30.97385444 21.50882372 -29.37890625 27.2265625 C-26.99083366 32.04516231 -22.93805089 35.15131206 -18 37 C-11.82667105 37.91943197 -6.18617895 37.7388732 -1 34 C3.76047806 29.25074948 6.12310129 25.68158393 6.375 18.8125 C6.30571437 12.99250701 4.94071643 9.28338743 1 5 C-4.23648715 0.63626071 -9.09033231 0.27100284 -15.83203125 0.48046875 C-21.75003976 1.45099296 -25.23384549 4.57819648 -28.68359375 9.30859375 Z " fill="#D7D7D7" transform="translate(36,5)"/>
</svg>
