<?xml version="1.0" encoding="UTF-8"?>
<svg version="1.1" xmlns="http://www.w3.org/2000/svg" width="48" height="48">
<path d="M0 0 C5.29526682 3.63425152 8.66922216 7.67012626 10 14 C10.95352712 21.76443511 9.32839011 27.50145287 5 34 C0.23207106 38.89340076 -5.26300167 41.15009262 -12 41.375 C-18.48989825 41.14883688 -23.77216501 38.94239202 -28.64453125 34.56640625 C-33.20444731 29.29687789 -34.6379406 23.19115428 -34.3203125 16.3515625 C-33.4505466 9.96620798 -30.31679503 5.5223567 -26 1 C-18.15473162 -4.54909227 -8.33347424 -4.64751448 0 0 Z " fill="#D57F4E" transform="translate(36,5)"/>
<path d="M0 0 C5.29526682 3.63425152 8.66922216 7.67012626 10 14 C10.95352712 21.76443511 9.32839011 27.50145287 5 34 C0.23207106 38.89340076 -5.26300167 41.15009262 -12 41.375 C-18.48989825 41.14883688 -23.77216501 38.94239202 -28.64453125 34.56640625 C-33.20444731 29.29687789 -34.6379406 23.19115428 -34.3203125 16.3515625 C-33.4505466 9.96620798 -30.31679503 5.5223567 -26 1 C-18.15473162 -4.54909227 -8.33347424 -4.64751448 0 0 Z M-27.3125 7.625 C-31.12133162 12.98557783 -30.52739185 18.6025076 -30 25 C-28.79650121 29.39238731 -26.08759532 32.23932935 -22.5 34.9375 C-17.25946683 37.90124722 -11.84745077 37.88247847 -6 37 C-1.09286985 34.68026575 1.8111048 31.28223069 5 27 C6.75516778 21.73449666 7.07215936 15.90396527 5.12890625 10.640625 C2.49674579 6.04944675 -0.78456374 2.46655501 -6 1 C-15.15419286 -0.09713173 -21.03651394 0.50090772 -27.3125 7.625 Z " fill="#D7D7D7" transform="translate(36,5)"/>
<path d="M0 0 C3.74560554 0.85613841 5.63376172 2.39349137 7.8125 5.4375 C10.73301511 10.4954268 10.7780436 15.30891705 10 21 C8.3320011 26.20023187 4.72877113 30.23796777 0 33 C-0.99 32.67 -1.98 32.34 -3 32 C-1.68 31.34 -0.36 30.68 1 30 C1.0246985 26.04900072 1.04285923 22.09803126 1.05493164 18.14697266 C1.06244036 16.14093449 1.0751447 14.13491798 1.08789062 12.12890625 C1.09111328 10.87207031 1.09433594 9.61523438 1.09765625 8.3203125 C1.10289307 7.15773926 1.10812988 5.99516602 1.11352539 4.79736328 C1.19356283 2.04497808 1.19356283 2.04497808 0 0 Z " fill="#8C5243" transform="translate(32,8)"/>
<path d="M0 0 C1.74861792 -0.10853491 3.49919241 -0.18583428 5.25 -0.25 C6.22453125 -0.29640625 7.1990625 -0.3428125 8.203125 -0.390625 C11.84002168 0.11732146 12.76604681 1.12204552 15 4 C15.45410156 7.02441406 15.45410156 7.02441406 15.390625 10.515625 C15.37773438 11.76601563 15.36484375 13.01640625 15.3515625 14.3046875 C15.31804688 15.60664063 15.28453125 16.90859375 15.25 18.25 C15.23195313 19.56742188 15.21390625 20.88484375 15.1953125 22.2421875 C15.14816271 25.49552308 15.08236044 28.74739625 15 32 C13.35 32.66 11.7 33.32 10 34 C10 23.11 10 12.22 10 1 C6.7 1 3.4 1 0 1 C0 0.67 0 0.34 0 0 Z " fill="#AE6A50" transform="translate(19,6)"/>
<path d="M0 0 C4.89248794 4.73466575 4.89248794 4.73466575 5.203125 8.390625 C5.29514036 14.00356206 5.28661395 18.19648731 2 23 C1.34 23.33 0.68 23.66 0 24 C0.495 22.515 0.495 22.515 1 21 C1.09130522 19.62732077 1.13065525 18.25071082 1.1328125 16.875 C1.13410156 16.08609375 1.13539062 15.2971875 1.13671875 14.484375 C1.13285156 13.66453125 1.12898438 12.8446875 1.125 12 C1.12886719 11.18015625 1.13273437 10.3603125 1.13671875 9.515625 C1.13542969 8.72671875 1.13414063 7.9378125 1.1328125 7.125 C1.13168457 6.40570312 1.13055664 5.68640625 1.12939453 4.9453125 C1.06777378 2.78237639 1.06777378 2.78237639 0 0 Z " fill="#54322C" transform="translate(37,12)"/>
<path d="M0 0 C0.33 0 0.66 0 1 0 C1 6.27 1 12.54 1 19 C-1 18 -1 18 -2 15 C-2.11880354 13.1903182 -2.1751965 11.37603553 -2.1875 9.5625 C-2.20167969 8.61503906 -2.21585937 7.66757812 -2.23046875 6.69140625 C-1.99614518 3.95498356 -1.39701383 2.33571877 0 0 Z " fill="#F87C2D" transform="translate(9,14)"/>
</svg>
